<svg width="40" height="40" viewBox="0 0 40 40" xmlns="http://www.w3.org/2000/svg" role="img" aria-label="Signal mark">
  <defs>
    <linearGradient id="g" x1="0" y1="0" x2="1" y2="1">
      <stop offset="0" stop-color="#000"/>
      <stop offset="1" stop-color="#000"/>
    </linearGradient>
  </defs>
  <!-- outer ring -->
  <circle cx="20" cy="20" r="18" fill="none" stroke="url(#g)" stroke-width="2"/>
  <!-- stylized S -->
  <path d="M25.7 13.2c-.9-1.9-2.9-3.2-5.7-3.2-3.3 0-5.8 1.7-5.8 4.5 0 2.6 2.2 3.6 4.7 4.2l1.6.4c1.8.4 3 .9 3 2 0 1.3-1.4 2.2-3.4 2.2-1.8 0-3.2-.7-4-2l-2.3 1.4c1.3 2.2 3.6 3.5 6.3 3.5 3.7 0 6.2-1.9 6.2-4.9 0-2.8-2.2-3.9-5-4.5l-1.6-.4c-1.7-.4-2.7-.8-2.7-1.8 0-1.2 1.3-1.9 3-1.9 1.6 0 2.7.6 3.4 1.6l2.3-1.1z" fill="#000"/>
  <!-- signal arcs -->
  <path d="M28.9 16.1a9.8 9.8 0 0 1 0 7.8" fill="none" stroke="#000" stroke-width="2" stroke-linecap="round"/>
  <path d="M31.9 13.7a13.5 13.5 0 0 1 0 12.6" fill="none" stroke="#000" stroke-width="2" stroke-linecap="round" opacity="0.85"/>
</svg>
